<?xml version="1.0" encoding="utf-8"?>
<?xml-stylesheet type="text/xsl" href="rss1.xsl"?>
<rss version="2.0" xmlns:atom="http://www.w3.org/2005/Atom" xmlns:content="http://purl.org/rss/1.0/modules/content/" xmlns:dc="http://purl.org/dc/elements/1.1/" xmlns:media="http://search.yahoo.com/mrss/">
<channel>
 <title>Getty</title>
 <link>http://www.gettyimg.com/</link>
 <atom:link href="http://www.gettyimg.com/" rel="self" type="application/rss+xml" />

 
                <item>
                <title><![CDATA[【VEVO】WEB-RiP - Daddy Yankee - Descontrol [VevoRip Clean AVC 1080p] - 2010]]></title>
                <link><![CDATA[https://sharemania.us/threads/daddy-yankee-descontrol-vevorip-clean-avc-1080p-2010.222667/]]></link>
                <description><![CDATA[<article>
<blockquote class="messageText SelectQuoteContainer ugc baseHtml">
<div style="text-align: center"><img src="https://i.imgur.com/89KGC5L.png" class="bbCodeImage LbImage" alt="[​IMG]" data-url="https://i.imgur.com/89KGC5L.png" style=""><br>
<br>
<img src="https://i.imgur.com/IXdcLgg.png" class="bbCodeImage LbImage" alt="[​IMG]" data-url="https://i.imgur.com/IXdcLgg.png" style="">​</div><br>
<div class="ToggleTriggerAnchor bbCodeSpoilerContainer">
<button type="button" class="button bbCodeSpoilerButton ToggleTrigger Tooltip JsOnly" data-target="> .SpoilerTarget"><span>Spoiler: <span class="SpoilerTitle">MediaInfo</span></span></button>
<div class="SpoilerTarget bbCodeSpoilerText">
<div class="bbCodeBlock bbCodeCode">
<div class="type">Code:</div>
<pre>General
Complete name                  : Daddy Yankee - Descontrol [VevoRip Clean AVC 1080p] - 2010.mp4
Format                         : MPEG-4
Format profile                 : Base Media
Codec ID                       : isom (isom/iso2/avc1/mp41)
File size                      : 117 MiB
Duration                       : 3 min 36 s
Overall bit rate               : 4 533 kb/s
Frame rate                     : 25.000 FPS
Writing application            : Lavf59.16.100

Video
ID                             : 1
Format                         : AVC
Format/Info                    : Advanced Video Codec
Format profile                 : Main@L4
Format settings                : CABAC / 4 Ref Frames
Format settings, CABAC         : Yes
Format settings, Reference fra : 4 frames
Codec ID                       : avc1
Codec ID/Info                  : Advanced Video Coding
Duration                       : 3 min 36 s
Bit rate                       : 4 399 kb/s
Width                          : 1 920 pixels
Height                         : 1 080 pixels
Display aspect ratio           : 16:9
Frame rate mode                : Constant
Frame rate                     : 25.000 FPS
Color space                    : YUV
Chroma subsampling             : 4:2:0
Bit depth                      : 8 bits
Scan type                      : Progressive
Bits/(Pixel*Frame)             : 0.085
Stream size                    : 114 MiB (97%)
Writing library                : x264 core 144 r2 40bb568
Encoding settings              : cabac=1 / ref=3 / deblock=1:0:0 / analyse=0x1:0x131 / me=umh / subme=10 / psy=1 / psy_rd=1.00:0.00 / mixed_ref=1 / me_range=24 / chroma_me=1 / trellis=2 / 8x8dct=0 / cqm=0 / deadzone=21,11 / fast_pskip=1 / chroma_qp_offset=-2 / threads=12 / lookahead_threads=1 / sliced_threads=0 / nr=0 / decimate=1 / interlaced=0 / bluray_compat=0 / constrained_intra=0 / bframes=3 / b_pyramid=2 / b_adapt=1 / b_bias=0 / direct=1 / weightb=1 / open_gop=0 / weightp=2 / keyint=125 / keyint_min=10 / scenecut=40 / intra_refresh=0 / rc_lookahead=60 / rc=2pass / mbtree=1 / bitrate=4420 / ratetol=1.0 / qcomp=0.60 / qpmin=0 / qpmax=69 / qpstep=4 / cplxblur=20.0 / qblur=0.5 / vbv_maxrate=5200 / vbv_bufsize=5200 / nal_hrd=none / filler=0 / ip_ratio=1.40 / aq=1:1.00
Language                       : English
Codec configuration box        : avcC

Audio
ID                             : 2
Format                         : AAC LC
Format/Info                    : Advanced Audio Codec Low Complexity
Codec ID                       : mp4a-40-2
Duration                       : 3 min 36 s
Bit rate mode                  : Constant
Bit rate                       : 128 kb/s
Channel(s)                     : 2 channels
Channel layout                 : L R
Sampling rate                  : 44.1 kHz
Frame rate                     : 43.066 FPS (1024 SPF)
Compression mode               : Lossy
Stream size                    : 3.31 MiB (3%)
Language                       : English
Default                        : Yes
Alternate group                : 1
</pre>
</div></div>
</div><br>
<div style="text-align: center"><b>DOWNLOAD LINK</b><br>
<img src="https://i.imgur.com/yRbU0vs.png" class="bbCodeImage LbImage" alt="[​IMG]" data-url="https://i.imgur.com/yRbU0vs.png" style=""><br>
<div class="bbCodeBlock bbCodeVfcHH HiddenContent">
<div class="attribution type">Hidden Content:</div>
<blockquote>You must either reply or click 'Like' to see the hidden information contained here.</blockquote>
</div></div>
<div class="messageTextEndMarker">&nbsp;</div>
</blockquote>
</article>]]></description>
                <author><![CDATA[ElFunadisimo]]></author>
                </item>

                </channel></rss>